<?xml version="1.0" encoding="UTF-8" standalone="no"?>
<!-- Created with Inkscape (http://www.inkscape.org/) -->

<svg
   width="50"
   height="50"
   viewBox="0 0 50 50"
   version="1.1"
   id="svg1"
   xml:space="preserve"
   inkscape:version="1.4.2 (ebf0e940d0, 2025-05-08)"
   sodipodi:docname="level.svg"
   xmlns:inkscape="http://www.inkscape.org/namespaces/inkscape"
   xmlns:sodipodi="http://sodipodi.sourceforge.net/DTD/sodipodi-0.dtd"
   xmlns="http://www.w3.org/2000/svg"
   xmlns:svg="http://www.w3.org/2000/svg"><sodipodi:namedview
     id="namedview1"
     pagecolor="#ffffff"
     bordercolor="#000000"
     borderopacity="0.25"
     inkscape:showpageshadow="2"
     inkscape:pageopacity="0.0"
     inkscape:pagecheckerboard="0"
     inkscape:deskcolor="#d1d1d1"
     inkscape:document-units="px"
     inkscape:zoom="13.682516"
     inkscape:cx="32.596344"
     inkscape:cy="12.388072"
     inkscape:window-width="2560"
     inkscape:window-height="1412"
     inkscape:window-x="0"
     inkscape:window-y="0"
     inkscape:window-maximized="1"
     inkscape:current-layer="layer1" /><defs
     id="defs1"><inkscape:path-effect
       effect="fillet_chamfer"
       id="path-effect2"
       is_visible="true"
       lpeversion="1"
       nodesatellites_param="F,0,1,1,0,6.8400112,0,1 @ F,0,1,1,0,6.8400112,0,1 @ F,0,1,1,0,6.8400112,0,1 @ F,0,1,1,0,6.8400112,0,1 @ F,0,0,1,0,6.8400112,0,1 @ F,0,1,1,0,6.8400112,0,1"
       radius="0"
       unit="px"
       method="auto"
       mode="F"
       chamfer_steps="1"
       flexible="false"
       use_knot_distance="true"
       apply_no_radius="true"
       apply_with_radius="true"
       only_selected="false"
       hide_knots="false" /><inkscape:path-effect
       effect="fillet_chamfer"
       id="path-effect1"
       is_visible="true"
       lpeversion="1"
       nodesatellites_param="F,0,0,1,0,0,0,1 @ F,0,0,1,0,0,0,1 @ F,0,0,1,0,0,0,1 @ F,0,0,1,0,0,0,1 @ F,0,0,1,0,0,0,1 @ F,0,0,1,0,0,0,1"
       radius="0"
       unit="px"
       method="auto"
       mode="F"
       chamfer_steps="1"
       flexible="false"
       use_knot_distance="true"
       apply_no_radius="true"
       apply_with_radius="true"
       only_selected="false"
       hide_knots="false" /><inkscape:path-effect
       effect="fillet_chamfer"
       id="path-effect2-5"
       is_visible="true"
       lpeversion="1"
       nodesatellites_param="F,0,1,1,0,6.8400112,0,1 @ F,0,1,1,0,6.8400112,0,1 @ F,0,1,1,0,6.8400112,0,1 @ F,0,1,1,0,6.8400112,0,1 @ F,0,0,1,0,6.8400112,0,1 @ F,0,1,1,0,6.8400112,0,1"
       radius="0"
       unit="px"
       method="auto"
       mode="F"
       chamfer_steps="1"
       flexible="false"
       use_knot_distance="true"
       apply_no_radius="true"
       apply_with_radius="true"
       only_selected="false"
       hide_knots="false" /><inkscape:path-effect
       effect="fillet_chamfer"
       id="path-effect2-7"
       is_visible="true"
       lpeversion="1"
       nodesatellites_param="F,0,1,1,0,6.8400112,0,1 @ F,0,1,1,0,6.8400112,0,1 @ F,0,1,1,0,6.8400112,0,1 @ F,0,1,1,0,6.8400112,0,1 @ F,0,0,1,0,6.8400112,0,1 @ F,0,1,1,0,6.8400112,0,1"
       radius="0"
       unit="px"
       method="auto"
       mode="F"
       chamfer_steps="1"
       flexible="false"
       use_knot_distance="true"
       apply_no_radius="true"
       apply_with_radius="true"
       only_selected="false"
       hide_knots="false" /><mask
       maskUnits="userSpaceOnUse"
       id="mask3"><rect
         style="fill:#ffffff;fill-opacity:0.275324;stroke:none;stroke-width:5;stroke-linecap:round;stroke-linejoin:round;stroke-miterlimit:9.2;stroke-dasharray:none;paint-order:normal"
         id="rect3"
         width="45.891472"
         height="138.91473"
         x="56.27747"
         y="-97.475441"
         transform="rotate(60)"
         d="m 56.27747,-97.475441 h 45.89147 V 41.439293 H 56.27747 Z" /></mask></defs><g
     inkscape:label="Layer 1"
     inkscape:groupmode="layer"
     id="layer1"><g
       id="g3"
       transform="matrix(0.42765318,0,0,0.42765318,-0.6591908,-0.65919055)"><path
         id="path1-9"
         style="fill:#ffffff;stroke-width:5;stroke-linecap:round;stroke-linejoin:round;stroke-miterlimit:9.2"
         d="M 99.512017,89.652285 65.923623,109.04455 a 11.847246,11.847246 0 0 1 -11.847246,0 L 20.487983,89.652285 A 11.847247,11.847247 60.000001 0 1 14.56436,79.392268 l 0,-38.784536 A 11.847247,11.847247 120 0 1 20.487983,30.347715 L 54.076377,10.955448 a 11.847247,11.847247 0 0 1 11.847246,0 l 33.588394,19.392267 a 11.847247,11.847247 60 0 1 5.923623,10.260017 v 38.784536 a 11.847247,11.847247 120 0 1 -5.923623,10.260017 z"
         sodipodi:nodetypes="ccccccc"
         inkscape:path-effect="#path-effect2-5"
         inkscape:original-d="M 105.43564,86.232279 60,112.46456 14.56436,86.232279 V 33.767721 L 60,7.5354424 105.43564,33.767721 Z"
         transform="matrix(1.1545828,0,0,1.1545828,-9.274968,-9.2749693)" /><path
         id="path1"
         style="fill:#e3a233;fill-opacity:1;stroke-width:5;stroke-linecap:round;stroke-linejoin:round;stroke-miterlimit:9.2"
         d="M 99.512017,89.652285 65.923623,109.04455 a 11.847246,11.847246 0 0 1 -11.847246,0 L 20.487983,89.652285 A 11.847247,11.847247 60.000001 0 1 14.56436,79.392268 l 0,-38.784536 A 11.847247,11.847247 120 0 1 20.487983,30.347715 L 54.076377,10.955448 a 11.847247,11.847247 0 0 1 11.847246,0 l 33.588394,19.392267 a 11.847247,11.847247 60 0 1 5.923623,10.260017 v 38.784536 a 11.847247,11.847247 120 0 1 -5.923623,10.260017 z"
         sodipodi:nodetypes="ccccccc"
         inkscape:path-effect="#path-effect2"
         inkscape:original-d="M 105.43564,86.232279 60,112.46456 14.56436,86.232279 V 33.767721 L 60,7.5354424 105.43564,33.767721 Z" /><path
         id="path1-3"
         style="fill:#ffffff;fill-opacity:1;stroke-width:5;stroke-linecap:round;stroke-linejoin:round;stroke-miterlimit:9.2"
         d="M 99.512017,89.652285 65.923623,109.04455 a 11.847246,11.847246 0 0 1 -11.847246,0 L 20.487983,89.652285 A 11.847247,11.847247 60.000001 0 1 14.56436,79.392268 l 0,-38.784536 A 11.847247,11.847247 120 0 1 20.487983,30.347715 L 54.076377,10.955448 a 11.847247,11.847247 0 0 1 11.847246,0 l 33.588394,19.392267 a 11.847247,11.847247 60 0 1 5.923623,10.260017 v 38.784536 a 11.847247,11.847247 120 0 1 -5.923623,10.260017 z"
         sodipodi:nodetypes="ccccccc"
         inkscape:path-effect="#path-effect2-7"
         inkscape:original-d="M 105.43564,86.232279 60,112.46456 14.56436,86.232279 V 33.767721 L 60,7.5354424 105.43564,33.767721 Z"
         mask="url(#mask3)" /></g></g></svg>
